<svg width="128" height="128" viewBox="0 0 128 128" fill="none" xmlns="http://www.w3.org/2000/svg">
<path d="M29 99.0701L99 99.0701" stroke="black" stroke-width="8.22174" stroke-linecap="round"/>
<path d="M61.0933 101.977C62.6987 103.582 65.3016 103.582 66.9069 101.977L93.0684 75.8155C94.6738 74.2101 94.6738 71.6072 93.0684 70.0018C91.463 68.3964 88.8601 68.3964 87.2547 70.0018L64.0001 93.2564L40.7455 70.0018C39.1401 68.3964 36.5373 68.3964 34.9319 70.0018C33.3265 71.6072 33.3265 74.2101 34.9319 75.8155L61.0933 101.977ZM68.111 28.9297C68.111 26.6593 66.2705 24.8188 64.0001 24.8188C61.7298 24.8188 59.8893 26.6593 59.8893 28.9297L64.0001 28.9297L68.111 28.9297ZM64.0001 99.0701L68.111 99.0701L68.111 28.9297L64.0001 28.9297L59.8893 28.9297L59.8893 99.0701L64.0001 99.0701Z" fill="black"/>
</svg>
